<?xml version="1.0" encoding="UTF-8" standalone="no"?><svg xmlns="http://www.w3.org/2000/svg" xmlns:xlink="http://www.w3.org/1999/xlink" contentStyleType="text/css" height="1716px" preserveAspectRatio="none" style="width:747px;height:1716px;background:#FFFFFF;" version="1.1" viewBox="0 0 747 1716" width="747px" zoomAndPan="magnify"><defs/><g><rect height="26.2969" style="stroke:#00000000;stroke-width:1.0;fill:none;" width="282" x="225.5" y="5"/><text fill="#000000" font-family="sans-serif" font-size="14" font-weight="bold" lengthAdjust="spacing" textLength="272" x="230.5" y="22.9951">Serious Game - Use Case Diagram</text><!--MD5=[845f21548b4f69cba2f10317fd5e52ac]
cluster Hauptmenü--><g id="cluster_Hauptmenü"><path d="M528.5,100.2969 L622.5,100.2969 A3.75,3.75 0 0 1 625,102.7969 L632,122.5938 L710.5,122.5938 A2.5,2.5 0 0 1 713,125.0938 L713,324.7969 A2.5,2.5 0 0 1 710.5,327.2969 L528.5,327.2969 A2.5,2.5 0 0 1 526,324.7969 L526,102.7969 A2.5,2.5 0 0 1 528.5,100.2969 " style="stroke:#000000;stroke-width:1.5;fill:none;"/><line style="stroke:#000000;stroke-width:1.5;fill:none;" x1="526" x2="632" y1="122.5938" y2="122.5938"/><text fill="#000000" font-family="sans-serif" font-size="14" font-weight="bold" lengthAdjust="spacing" textLength="93" x="530" y="115.292">Hauptmenü</text></g><!--MD5=[d0786023da02f42f8061a35845a323f9]
cluster In-Game-Menü--><g id="cluster_In-Game-Menü"><path d="M512,351.2969 L629,351.2969 A3.75,3.75 0 0 1 631.5,353.7969 L638.5,373.5938 L727,373.5938 A2.5,2.5 0 0 1 729.5,376.0938 L729.5,660.7969 A2.5,2.5 0 0 1 727,663.2969 L512,663.2969 A2.5,2.5 0 0 1 509.5,660.7969 L509.5,353.7969 A2.5,2.5 0 0 1 512,351.2969 " style="stroke:#000000;stroke-width:1.5;fill:none;"/><line style="stroke:#000000;stroke-width:1.5;fill:none;" x1="509.5" x2="638.5" y1="373.5938" y2="373.5938"/><text fill="#000000" font-family="sans-serif" font-size="14" font-weight="bold" lengthAdjust="spacing" textLength="116" x="513.5" y="366.292">In-Game-Menü</text></g><!--MD5=[ad29cb30f0e88e5beb04de4cbbbc662b]
cluster Bewegung--><g id="cluster_Bewegung"><path d="M515.5,687.2969 L598.5,687.2969 A3.75,3.75 0 0 1 601,689.7969 L608,709.5938 L723.5,709.5938 A2.5,2.5 0 0 1 726,712.0938 L726,925.7969 A2.5,2.5 0 0 1 723.5,928.2969 L515.5,928.2969 A2.5,2.5 0 0 1 513,925.7969 L513,689.7969 A2.5,2.5 0 0 1 515.5,687.2969 " style="stroke:#000000;stroke-width:1.5;fill:none;"/><line style="stroke:#000000;stroke-width:1.5;fill:none;" x1="513" x2="608" y1="709.5938" y2="709.5938"/><text fill="#000000" font-family="sans-serif" font-size="14" font-weight="bold" lengthAdjust="spacing" textLength="82" x="517" y="702.292">Bewegung</text></g><!--MD5=[f53c40f49d551ae6a095378a823e431a]
cluster Gatter--><g id="cluster_Gatter"><path d="M523,952.2969 L578,952.2969 A3.75,3.75 0 0 1 580.5,954.7969 L587.5,974.5938 L716,974.5938 A2.5,2.5 0 0 1 718.5,977.0938 L718.5,1251.7969 A2.5,2.5 0 0 1 716,1254.2969 L523,1254.2969 A2.5,2.5 0 0 1 520.5,1251.7969 L520.5,954.7969 A2.5,2.5 0 0 1 523,952.2969 " style="stroke:#000000;stroke-width:1.5;fill:none;"/><line style="stroke:#000000;stroke-width:1.5;fill:none;" x1="520.5" x2="587.5" y1="974.5938" y2="974.5938"/><text fill="#000000" font-family="sans-serif" font-size="14" font-weight="bold" lengthAdjust="spacing" textLength="54" x="524.5" y="967.292">Gatter</text></g><!--MD5=[9314088eda3e5b3c9f4dd5d45950faf3]
cluster Kabel--><g id="cluster_Kabel"><path d="M501.5,1278.2969 L546.5,1278.2969 A3.75,3.75 0 0 1 549,1280.7969 L556,1300.5938 L737.5,1300.5938 A2.5,2.5 0 0 1 740,1303.0938 L740,1514.7969 A2.5,2.5 0 0 1 737.5,1517.2969 L501.5,1517.2969 A2.5,2.5 0 0 1 499,1514.7969 L499,1280.7969 A2.5,2.5 0 0 1 501.5,1278.2969 " style="stroke:#000000;stroke-width:1.5;fill:none;"/><line style="stroke:#000000;stroke-width:1.5;fill:none;" x1="499" x2="556" y1="1300.5938" y2="1300.5938"/><text fill="#000000" font-family="sans-serif" font-size="14" font-weight="bold" lengthAdjust="spacing" textLength="44" x="503" y="1293.292">Kabel</text></g><!--MD5=[35df7e6784a4f282ed1c1b708cacaf59]
cluster Strom--><g id="cluster_Strom"><path d="M520,1541.2969 L571,1541.2969 A3.75,3.75 0 0 1 573.5,1543.7969 L580.5,1563.5938 L719,1563.5938 A2.5,2.5 0 0 1 721.5,1566.0938 L721.5,1703.7969 A2.5,2.5 0 0 1 719,1706.2969 L520,1706.2969 A2.5,2.5 0 0 1 517.5,1703.7969 L517.5,1543.7969 A2.5,2.5 0 0 1 520,1541.2969 " style="stroke:#000000;stroke-width:1.5;fill:none;"/><line style="stroke:#000000;stroke-width:1.5;fill:none;" x1="517.5" x2="580.5" y1="1563.5938" y2="1563.5938"/><text fill="#000000" font-family="sans-serif" font-size="14" font-weight="bold" lengthAdjust="spacing" textLength="50" x="521.5" y="1556.292">Strom</text></g><!--MD5=[5dddd75a47cf78fbbbb6d37f9a56c0d1]
cluster Notizen--><g id="cluster_Notizen"><path d="M36.5,43.2969 L99.5,43.2969 A3.75,3.75 0 0 1 102,45.7969 L109,65.5938 L329.5,65.5938 A2.5,2.5 0 0 1 332,68.0938 L332,379.7969 A2.5,2.5 0 0 1 329.5,382.2969 L36.5,382.2969 A2.5,2.5 0 0 1 34,379.7969 L34,45.7969 A2.5,2.5 0 0 1 36.5,43.2969 " style="stroke:#000000;stroke-width:1.5;fill:none;"/><line style="stroke:#000000;stroke-width:1.5;fill:none;" x1="34" x2="109" y1="65.5938" y2="65.5938"/><text fill="#000000" font-family="sans-serif" font-size="14" font-weight="bold" lengthAdjust="spacing" textLength="62" x="38" y="58.292">Notizen</text></g><!--MD5=[e4eeac980f7c60d0b9b4864e7df151e6]
cluster Board--><g id="cluster_Board"><path d="M29,406.2969 L78,406.2969 A3.75,3.75 0 0 1 80.5,408.7969 L87.5,428.5938 L337,428.5938 A2.5,2.5 0 0 1 339.5,431.0938 L339.5,760.7969 A2.5,2.5 0 0 1 337,763.2969 L29,763.2969 A2.5,2.5 0 0 1 26.5,760.7969 L26.5,408.7969 A2.5,2.5 0 0 1 29,406.2969 " style="stroke:#000000;stroke-width:1.5;fill:none;"/><line style="stroke:#000000;stroke-width:1.5;fill:none;" x1="26.5" x2="87.5" y1="428.5938" y2="428.5938"/><text fill="#000000" font-family="sans-serif" font-size="14" font-weight="bold" lengthAdjust="spacing" textLength="48" x="30.5" y="421.292">Board</text></g><!--MD5=[31969408207105461dfe2bbb6361da3e]
cluster Wandtafel--><g id="cluster_Wandtafel"><path d="M46,787.2969 L131,787.2969 A3.75,3.75 0 0 1 133.5,789.7969 L140.5,809.5938 L320,809.5938 A2.5,2.5 0 0 1 322.5,812.0938 L322.5,1104.7969 A2.5,2.5 0 0 1 320,1107.2969 L46,1107.2969 A2.5,2.5 0 0 1 43.5,1104.7969 L43.5,789.7969 A2.5,2.5 0 0 1 46,787.2969 " style="stroke:#000000;stroke-width:1.5;fill:none;"/><line style="stroke:#000000;stroke-width:1.5;fill:none;" x1="43.5" x2="140.5" y1="809.5938" y2="809.5938"/><text fill="#000000" font-family="sans-serif" font-size="14" font-weight="bold" lengthAdjust="spacing" textLength="84" x="47.5" y="802.292">Wandtafel</text></g><!--MD5=[b5c366b83e793ffab9f1f2be33d61e69]
cluster Automat--><g id="cluster_Automat"><path d="M87,1131.2969 L160,1131.2969 A3.75,3.75 0 0 1 162.5,1133.7969 L169.5,1153.5938 L279,1153.5938 A2.5,2.5 0 0 1 281.5,1156.0938 L281.5,1290.7969 A2.5,2.5 0 0 1 279,1293.2969 L87,1293.2969 A2.5,2.5 0 0 1 84.5,1290.7969 L84.5,1133.7969 A2.5,2.5 0 0 1 87,1131.2969 " style="stroke:#000000;stroke-width:1.5;fill:none;"/><line style="stroke:#000000;stroke-width:1.5;fill:none;" x1="84.5" x2="169.5" y1="1153.5938" y2="1153.5938"/><text fill="#000000" font-family="sans-serif" font-size="14" font-weight="bold" lengthAdjust="spacing" textLength="72" x="88.5" y="1146.292">Automat</text></g><!--MD5=[23a1c8c874643492dfcfe27de8b753e4]
cluster High-Score--><g id="cluster_High-Score"><path d="M8.5,1317.2969 L96.5,1317.2969 A3.75,3.75 0 0 1 99,1319.7969 L106,1339.5938 L357.5,1339.5938 A2.5,2.5 0 0 1 360,1342.0938 L360,1591.7969 A2.5,2.5 0 0 1 357.5,1594.2969 L8.5,1594.2969 A2.5,2.5 0 0 1 6,1591.7969 L6,1319.7969 A2.5,2.5 0 0 1 8.5,1317.2969 " style="stroke:#000000;stroke-width:1.5;fill:none;"/><line style="stroke:#000000;stroke-width:1.5;fill:none;" x1="6" x2="106" y1="1339.5938" y2="1339.5938"/><text fill="#000000" font-family="sans-serif" font-size="14" font-weight="bold" lengthAdjust="spacing" textLength="87" x="10" y="1332.292">High-Score</text></g><!--MD5=[d86914e48f4c2097b1bebcd21ba42dc9]
cluster Sonstige--><g id="cluster_Sonstige"><path d="M82,1618.2969 L154,1618.2969 A3.75,3.75 0 0 1 156.5,1620.7969 L163.5,1640.5938 L284,1640.5938 A2.5,2.5 0 0 1 286.5,1643.0938 L286.5,1706.7969 A2.5,2.5 0 0 1 284,1709.2969 L82,1709.2969 A2.5,2.5 0 0 1 79.5,1706.7969 L79.5,1620.7969 A2.5,2.5 0 0 1 82,1618.2969 " style="stroke:#000000;stroke-width:1.5;fill:none;"/><line style="stroke:#000000;stroke-width:1.5;fill:none;" x1="79.5" x2="163.5" y1="1640.5938" y2="1640.5938"/><text fill="#000000" font-family="sans-serif" font-size="14" font-weight="bold" lengthAdjust="spacing" textLength="71" x="83.5" y="1633.292">Sonstige</text></g><g id="elem_Spiel starten"><ellipse cx="619.5634" cy="152.2096" fill="#F1F1F1" rx="70.0634" ry="16.4127" style="stroke:#181818;stroke-width:0.5;"/><text fill="#000000" font-family="sans-serif" font-size="14" lengthAdjust="spacing" textLength="93" x="570.0634" y="155.9571">Spiel starten</text></g><g id="elem_Tutorial starten"><ellipse cx="619.3536" cy="222.1676" fill="#F1F1F1" rx="77.3536" ry="17.8707" style="stroke:#181818;stroke-width:0.5;"/><text fill="#000000" font-family="sans-serif" font-size="14" lengthAdjust="spacing" textLength="112" x="560.6333" y="225.8422">Tutorial starten</text></g><g id="elem_Sanbox starten"><ellipse cx="619.5612" cy="293.5091" fill="#F1F1F1" rx="76.5612" ry="17.7122" style="stroke:#181818;stroke-width:0.5;"/><text fill="#000000" font-family="sans-serif" font-size="14" lengthAdjust="spacing" textLength="110" x="561.5612" y="297.2567">Sanbox starten</text></g><g id="elem_Menü aufrufen"><ellipse cx="619.4504" cy="403.3869" fill="#F1F1F1" rx="73.4504" ry="17.0901" style="stroke:#181818;stroke-width:0.5;"/><text fill="#000000" font-family="sans-serif" font-size="14" lengthAdjust="spacing" textLength="102" x="565.4504" y="407.1345">Menü aufrufen</text></g><g id="elem_Menü verstecken"><ellipse cx="619.3658" cy="474.07" fill="#F1F1F1" rx="81.8658" ry="18.7732" style="stroke:#181818;stroke-width:0.5;"/><text fill="#000000" font-family="sans-serif" font-size="14" lengthAdjust="spacing" textLength="123" x="556.8805" y="477.2432">Menü verstecken</text></g><g id="elem_Spielszene neu laden"><ellipse cx="619.6163" cy="549.5201" fill="#F1F1F1" rx="94.1163" ry="21.2233" style="stroke:#181818;stroke-width:0.5;"/><text fill="#000000" font-family="sans-serif" font-size="14" lengthAdjust="spacing" textLength="151" x="544.1163" y="552.3668">Spielszene neu laden</text></g><g id="elem_SPielszene verlassen"><ellipse cx="619.2771" cy="626.2523" fill="#F1F1F1" rx="92.7771" ry="20.9554" style="stroke:#181818;stroke-width:0.5;"/><text fill="#000000" font-family="sans-serif" font-size="14" lengthAdjust="spacing" textLength="148" x="545.2771" y="629.099">SPielszene verlassen</text></g><g id="elem_Headset bewegen"><ellipse cx="619.4263" cy="742.0821" fill="#F1F1F1" rx="84.4263" ry="19.2853" style="stroke:#181818;stroke-width:0.5;"/><text fill="#000000" font-family="sans-serif" font-size="14" lengthAdjust="spacing" textLength="129" x="554.805" y="744.9708">Headset bewegen</text></g><g id="elem_Controller bewegen"><ellipse cx="619.5567" cy="817.3082" fill="#F1F1F1" rx="90.5567" ry="20.5113" style="stroke:#181818;stroke-width:0.5;"/><text fill="#000000" font-family="sans-serif" font-size="14" lengthAdjust="spacing" textLength="143" x="548.0567" y="820.1549">Controller bewegen</text></g><g id="elem_Im Raum bewegen"><ellipse cx="619.728" cy="892.3425" fill="#F1F1F1" rx="85.728" ry="19.5456" style="stroke:#181818;stroke-width:0.5;"/><text fill="#000000" font-family="sans-serif" font-size="14" lengthAdjust="spacing" textLength="132" x="553.728" y="895.1892">Im Raum bewegen</text></g><g id="elem_Gatter halten"><ellipse cx="619.4293" cy="1004.0827" fill="#F1F1F1" rx="71.9293" ry="16.7859" style="stroke:#181818;stroke-width:0.5;"/><text fill="#000000" font-family="sans-serif" font-size="14" lengthAdjust="spacing" textLength="98" x="567.4293" y="1007.8303">Gatter halten</text></g><g id="elem_Gatter platzieren"><ellipse cx="619.6379" cy="1075.3245" fill="#F1F1F1" rx="83.1379" ry="19.0276" style="stroke:#181818;stroke-width:0.5;"/><text fill="#000000" font-family="sans-serif" font-size="14" lengthAdjust="spacing" textLength="126" x="556.0914" y="1078.3562">Gatter platzieren</text></g><g id="elem_Gatter entfernen"><ellipse cx="619.712" cy="1148.2393" fill="#F1F1F1" rx="82.712" ry="18.9424" style="stroke:#181818;stroke-width:0.5;"/><text fill="#000000" font-family="sans-serif" font-size="14" lengthAdjust="spacing" textLength="125" x="556.5208" y="1151.3184">Gatter entfernen</text></g><g id="elem_Gatter löschen"><ellipse cx="619.3844" cy="1220.2738" fill="#F1F1F1" rx="75.3844" ry="17.4769" style="stroke:#181818;stroke-width:0.5;"/><text fill="#000000" font-family="sans-serif" font-size="14" lengthAdjust="spacing" textLength="107" x="562.8844" y="1224.0213">Gatter löschen</text></g><g id="elem_Kabel halten"><ellipse cx="619.3288" cy="1330.0626" fill="#F1F1F1" rx="69.3288" ry="16.2658" style="stroke:#181818;stroke-width:0.5;"/><text fill="#000000" font-family="sans-serif" font-size="14" lengthAdjust="spacing" textLength="91" x="570.8288" y="1333.8102">Kabel halten</text></g><g id="elem_Kabel-Handle platzieren"><ellipse cx="619.5329" cy="1405.1035" fill="#F1F1F1" rx="104.5329" ry="23.3066" style="stroke:#181818;stroke-width:0.5;"/><text fill="#000000" font-family="sans-serif" font-size="14" lengthAdjust="spacing" textLength="174" x="532.5329" y="1407.9501">Kabel-Handle platzieren</text></g><g id="elem_Kabel entfernen"><ellipse cx="619.2839" cy="1482.1536" fill="#F1F1F1" rx="79.7839" ry="18.3568" style="stroke:#181818;stroke-width:0.5;"/><text fill="#000000" font-family="sans-serif" font-size="14" lengthAdjust="spacing" textLength="118" x="558.5356" y="1485.5582">Kabel entfernen</text></g><g id="elem_Strom einschalten"><ellipse cx="619.728" cy="1596.3425" fill="#F1F1F1" rx="85.728" ry="19.5456" style="stroke:#181818;stroke-width:0.5;"/><text fill="#000000" font-family="sans-serif" font-size="14" lengthAdjust="spacing" textLength="132" x="553.728" y="1599.1892">Strom einschalten</text></g><g id="elem_Strom ausschalten"><ellipse cx="619.6635" cy="1670.4296" fill="#F1F1F1" rx="86.1635" ry="19.6327" style="stroke:#181818;stroke-width:0.5;"/><text fill="#000000" font-family="sans-serif" font-size="14" lengthAdjust="spacing" textLength="133" x="553.1635" y="1673.2763">Strom ausschalten</text></g><g id="elem_Kreide halten"><ellipse cx="183.0529" cy="95.5075" fill="#F1F1F1" rx="71.5529" ry="16.7106" style="stroke:#181818;stroke-width:0.5;"/><text fill="#000000" font-family="sans-serif" font-size="14" lengthAdjust="spacing" textLength="97" x="131.5529" y="99.255">Kreide halten</text></g><g id="elem_Striche mit kreide platzieren"><ellipse cx="182.7717" cy="173.3512" fill="#F1F1F1" rx="120.7717" ry="26.5543" style="stroke:#181818;stroke-width:0.5;"/><text fill="#000000" font-family="sans-serif" font-size="14" lengthAdjust="spacing" textLength="209" x="78.2717" y="176.1979">Striche mit kreide platzieren</text></g><g id="elem_Schwamm halten"><ellipse cx="182.8658" cy="254.07" fill="#F1F1F1" rx="81.8658" ry="18.7732" style="stroke:#181818;stroke-width:0.5;"/><text fill="#000000" font-family="sans-serif" font-size="14" lengthAdjust="spacing" textLength="123" x="120.3805" y="257.2432">Schwamm halten</text></g><g id="elem_Striche mit Schwamm entfernen"><ellipse cx="183.0468" cy="337.3062" fill="#F1F1F1" rx="133.0468" ry="29.0094" style="stroke:#181818;stroke-width:0.5;"/><text fill="#000000" font-family="sans-serif" font-size="14" lengthAdjust="spacing" textLength="235" x="65.5468" y="340.1529">Striche mit Schwamm entfernen</text></g><g id="elem_Board leeren"><ellipse cx="183.1952" cy="458.1359" fill="#F1F1F1" rx="69.6952" ry="16.339" style="stroke:#181818;stroke-width:0.5;"/><text fill="#000000" font-family="sans-serif" font-size="14" lengthAdjust="spacing" textLength="92" x="134.1952" y="461.8835">Board leeren</text></g><g id="elem_Pseudo-Gatter erstellen"><ellipse cx="183.0751" cy="533.5119" fill="#F1F1F1" rx="104.0751" ry="23.215" style="stroke:#181818;stroke-width:0.5;"/><text fill="#000000" font-family="sans-serif" font-size="14" lengthAdjust="spacing" textLength="173" x="96.5751" y="536.3586">Pseudo-Gatter erstellen</text></g><g id="elem_Label für Pseudo-Gatter erstellen"><ellipse cx="182.9233" cy="621.2815" fill="#F1F1F1" rx="135.4233" ry="29.4847" style="stroke:#181818;stroke-width:0.5;"/><text fill="#000000" font-family="sans-serif" font-size="14" lengthAdjust="spacing" textLength="240" x="62.9233" y="624.1282">Label für Pseudo-Gatter erstellen</text></g><g id="elem_Label für Psedo-Gatter bestimmen"><ellipse cx="183.1669" cy="716.3303" fill="#F1F1F1" rx="140.6669" ry="30.5334" style="stroke:#181818;stroke-width:0.5;"/><text fill="#000000" font-family="sans-serif" font-size="14" lengthAdjust="spacing" textLength="251" x="57.6669" y="719.1769">Label für Psedo-Gatter bestimmen</text></g><g id="elem_Aufgabe ablesen"><ellipse cx="183.1107" cy="841.319" fill="#F1F1F1" rx="80.6107" ry="18.5221" style="stroke:#181818;stroke-width:0.5;"/><text fill="#000000" font-family="sans-serif" font-size="14" lengthAdjust="spacing" textLength="120" x="121.6726" y="844.6316">Aufgabe ablesen</text></g><g id="elem_AUfgabe überprüfen"><ellipse cx="182.8872" cy="916.0743" fill="#F1F1F1" rx="91.8872" ry="20.7774" style="stroke:#181818;stroke-width:0.5;"/><text fill="#000000" font-family="sans-serif" font-size="14" lengthAdjust="spacing" textLength="146" x="109.8872" y="918.921">AUfgabe überprüfen</text></g><g id="elem_Navigieren"><ellipse cx="183.0594" cy="987.5088" fill="#F1F1F1" rx="64.0594" ry="15.2119" style="stroke:#181818;stroke-width:0.5;"/><text fill="#000000" font-family="sans-serif" font-size="14" lengthAdjust="spacing" textLength="76" x="142.0594" y="991.2563">Navigieren</text></g><g id="elem_Hinweise / Lösungen beziehen"><ellipse cx="183.0909" cy="1064.4151" fill="#F1F1F1" rx="123.5909" ry="27.1182" style="stroke:#181818;stroke-width:0.5;"/><text fill="#000000" font-family="sans-serif" font-size="14" lengthAdjust="spacing" textLength="215" x="75.5909" y="1067.2617">Hinweise / Lösungen beziehen</text></g><g id="elem_Gatter auswählen"><ellipse cx="183.212" cy="1185.2393" fill="#F1F1F1" rx="82.712" ry="18.9424" style="stroke:#181818;stroke-width:0.5;"/><text fill="#000000" font-family="sans-serif" font-size="14" lengthAdjust="spacing" textLength="125" x="120.0208" y="1188.3184">Gatter auswählen</text></g><g id="elem_Gatter beziehen"><ellipse cx="183.1963" cy="1258.2361" fill="#F1F1F1" rx="80.1963" ry="18.4393" style="stroke:#181818;stroke-width:0.5;"/><text fill="#000000" font-family="sans-serif" font-size="14" lengthAdjust="spacing" textLength="119" x="122.1039" y="1261.5948">Gatter beziehen</text></g><g id="elem_High-Score ablesen"><ellipse cx="182.7915" cy="1372.4552" fill="#F1F1F1" rx="88.7915" ry="20.1583" style="stroke:#181818;stroke-width:0.5;"/><text fill="#000000" font-family="sans-serif" font-size="14" lengthAdjust="spacing" textLength="139" x="113.2915" y="1375.3018">High-Score ablesen</text></g><g id="elem_Aktueller Score ablesen"><ellipse cx="183.1608" cy="1450.329" fill="#F1F1F1" rx="103.1608" ry="23.0322" style="stroke:#181818;stroke-width:0.5;"/><text fill="#000000" font-family="sans-serif" font-size="14" lengthAdjust="spacing" textLength="171" x="97.6608" y="1453.1757">Aktueller Score ablesen</text></g><g id="elem_Abziehen der Punkte pro Hinweis/Lösung"><ellipse cx="182.8486" cy="1543.3666" fill="#F1F1F1" rx="160.8486" ry="34.5697" style="stroke:#181818;stroke-width:0.5;"/><text fill="#000000" font-family="sans-serif" font-size="14" lengthAdjust="spacing" textLength="293" x="36.3486" y="1546.2133">Abziehen der Punkte pro Hinweis/Lösung</text></g><g id="elem_Spiel zurücksetzen"><ellipse cx="182.9744" cy="1673.1918" fill="#F1F1F1" rx="87.4744" ry="19.8949" style="stroke:#181818;stroke-width:0.5;"/><text fill="#000000" font-family="sans-serif" font-size="14" lengthAdjust="spacing" textLength="136" x="114.9744" y="1676.0384">Spiel zurücksetzen</text></g><!--MD5=[8ad42e69c823d91e931492f14bc2a1bb]
entity S--><g id="elem_S"><ellipse cx="429.5" cy="862.7969" fill="#F1F1F1" rx="8" ry="8" style="stroke:#181818;stroke-width:0.5;"/><path d="M429.5,870.7969 L429.5,897.7969 M416.5,878.7969 L442.5,878.7969 M429.5,897.7969 L416.5,912.7969 M429.5,897.7969 L442.5,912.7969 " fill="none" style="stroke:#181818;stroke-width:0.5;"/><text fill="#000000" font-family="sans-serif" font-size="14" lengthAdjust="spacing" textLength="51" x="404" y="927.292">Spieler</text></g><!--MD5=[865b37e34832db690eeb2a42e0fd188e]
link S to Spiel starten--><g id="link_S_Spiel starten"><path d="M431.245,854.1239 C434.307,714.6069 447.87,237.7269 491,186.2969 C504.628,170.0469 525.073,161.1069 545.624,156.3069 " fill="none" id="S-to-Spiel starten" style="stroke:#181818;stroke-width:1.0;"/><polygon fill="#181818" points="550.564,155.2269,540.9194,153.2314,545.6783,156.2897,542.62,161.0486,550.564,155.2269" style="stroke:#181818;stroke-width:1.0;"/></g><!--MD5=[c448bc693d508e2c9474a45a5e95b6dc]
link S to Tutorial starten--><g id="link_S_Tutorial starten"><path d="M431.668,854.0559 C435.975,723.9769 452.747,304.1369 491,258.2969 C503.392,243.4469 521.401,234.4669 539.999,229.1069 " fill="none" id="S-to-Tutorial starten" style="stroke:#181818;stroke-width:1.0;"/><polygon fill="#181818" points="545.256,227.6869,535.5247,226.1695,540.4286,228.9894,537.6088,233.8933,545.256,227.6869" style="stroke:#181818;stroke-width:1.0;"/></g><!--MD5=[7056deffdc5ab24e531c7fc1e41a3433]
link S to Sanbox starten--><g id="link_S_Sanbox starten"><path d="M430.655,854.0819 C431.742,747.6649 439.437,450.4869 491,370.2969 C509.443,341.6169 542.717,322.0469 570.649,309.8169 " fill="none" id="S-to-Sanbox starten" style="stroke:#181818;stroke-width:1.0;"/><polygon fill="#181818" points="575.44,307.7669,565.5921,307.6278,570.8427,309.7329,568.7377,314.9835,575.44,307.7669" style="stroke:#181818;stroke-width:1.0;"/></g><!--MD5=[ce47c21185a9fda80fe27473a140a263]
link S to Menü aufrufen--><g id="link_S_Menü aufrufen"><path d="M430.32,854.0609 C430.655,755.9989 436.805,498.9369 491,437.2969 C504.247,422.2269 523.353,413.4869 542.757,408.5169 " fill="none" id="S-to-Menü aufrufen" style="stroke:#181818;stroke-width:1.0;"/><polygon fill="#181818" points="547.694,407.3269,538.008,405.5431,542.8327,408.4964,539.8793,413.3211,547.694,407.3269" style="stroke:#181818;stroke-width:1.0;"/></g><!--MD5=[cd1bc6bd734d43651796739c946dc4ee]
link S to Menü verstecken--><g id="link_S_Menü verstecken"><path d="M431.461,854.2849 C434.417,767.9809 446.127,560.8069 491,510.2969 C503.148,496.6269 520.052,487.9669 537.585,482.5369 " fill="none" id="S-to-Menü verstecken" style="stroke:#181818;stroke-width:1.0;"/><polygon fill="#181818" points="542.543,481.0869,532.7816,479.7774,537.7445,482.492,535.0299,487.455,542.543,481.0869" style="stroke:#181818;stroke-width:1.0;"/></g><!--MD5=[430a287e89d7ed9f64d8497ed44faabe]
link S to Spielszene neu laden--><g id="link_S_Spielszene neu laden"><path d="M433.224,854.1069 C439.182,781.2089 455.751,626.0169 491,587.2969 C501.991,575.2269 516.633,566.9169 532.072,561.2269 " fill="none" id="S-to-Spielszene neu laden" style="stroke:#181818;stroke-width:1.0;"/><polygon fill="#181818" points="536.886,559.5369,527.0704,558.728,532.1656,561.1855,529.7081,566.2806,536.886,559.5369" style="stroke:#181818;stroke-width:1.0;"/></g><!--MD5=[4de9ed938266f8b649b6b1a82dcfefc2]
link S to SPielszene verlassen--><g id="link_S_SPielszene verlassen"><path d="M435.113,854.1409 C441.645,813.8019 456.852,750.0729 491,706.2969 C511.359,680.1969 542.788,660.3369 569.346,646.9369 " fill="none" id="S-to-SPielszene verlassen" style="stroke:#181818;stroke-width:1.0;"/><polygon fill="#181818" points="573.903,644.6769,564.0628,645.0889,569.4229,646.8969,567.6149,652.2571,573.903,644.6769" style="stroke:#181818;stroke-width:1.0;"/></g><!--MD5=[ef0e2d1df43f2f6f9b54861d1875b5ae]
link S to Headset bewegen--><g id="link_S_Headset bewegen"><path d="M442.208,854.1859 C451.65,829.4999 467.311,798.4859 491,779.2969 C505.652,767.4279 523.96,759.3669 542.091,753.8909 " fill="none" id="S-to-Headset bewegen" style="stroke:#181818;stroke-width:1.0;"/><polygon fill="#181818" points="547.197,752.4139,537.4398,751.0736,542.3941,753.8039,539.6638,758.7582,547.197,752.4139" style="stroke:#181818;stroke-width:1.0;"/></g><!--MD5=[5a50f3133475484746d6a6355b9ee9a3]
link S to Controller bewegen--><g id="link_S_Controller bewegen"><path d="M455.018,875.2999 C465.72,868.4169 478.63,860.8099 491,855.2969 C510.254,846.7149 531.985,839.4229 551.979,833.5909 " fill="none" id="S-to-Controller bewegen" style="stroke:#181818;stroke-width:1.0;"/><polygon fill="#181818" points="557.022,832.1399,547.2667,830.7854,552.2171,833.5229,549.4796,838.4733,557.022,832.1399" style="stroke:#181818;stroke-width:1.0;"/></g><!--MD5=[182c0ed45cf38b02927cf161cef5f48d]
link S to Im Raum bewegen--><g id="link_S_Im Raum bewegen"><path d="M455.078,892.2969 C474.099,892.2969 501.688,892.2969 528.799,892.2969 " fill="none" id="S-to-Im Raum bewegen" style="stroke:#181818;stroke-width:1.0;"/><polygon fill="#181818" points="533.854,892.2969,524.854,888.2969,528.854,892.2969,524.854,896.2969,533.854,892.2969" style="stroke:#181818;stroke-width:1.0;"/></g><!--MD5=[235beff3ea73acf36e2bf4ce72233375]
link S to Gatter halten--><g id="link_S_Gatter halten"><path d="M455.078,906.9389 C489.126,927.2229 550.632,963.8649 587.703,985.9499 " fill="none" id="S-to-Gatter halten" style="stroke:#181818;stroke-width:1.0;"/><polygon fill="#181818" points="592.099,988.5689,586.4167,980.5246,587.8042,986.0086,582.3202,987.3962,592.099,988.5689" style="stroke:#181818;stroke-width:1.0;"/></g><!--MD5=[5f8a1a618d157e94c70e96974a0d7d96]
link S to Gatter platzieren--><g id="link_S_Gatter platzieren"><path d="M436.811,930.5839 C444.222,963.6149 459.724,1010.2959 491,1038.2969 C505.048,1050.8739 523.139,1059.1909 541.253,1064.6869 " fill="none" id="S-to-Gatter platzieren" style="stroke:#181818;stroke-width:1.0;"/><polygon fill="#181818" points="546.359,1066.1629,538.8235,1059.8212,541.5556,1064.7746,536.6022,1067.5066,546.359,1066.1629" style="stroke:#181818;stroke-width:1.0;"/></g><!--MD5=[5158193ae1f31f1c5b99ac62f171a917]
link S to Gatter entfernen--><g id="link_S_Gatter entfernen"><path d="M430.32,930.6959 C432.222,979.3139 442.921,1062.5929 491,1111.2969 C504.099,1124.5659 521.65,1133.1429 539.533,1138.6699 " fill="none" id="S-to-Gatter entfernen" style="stroke:#181818;stroke-width:1.0;"/><polygon fill="#181818" points="544.582,1140.1489,537.0695,1133.78,539.7837,1138.7432,534.8205,1141.4574,544.582,1140.1489" style="stroke:#181818;stroke-width:1.0;"/></g><!--MD5=[623754da6d4602d6a94d0eb5753156c8]
link S to Gatter löschen--><g id="link_S_Gatter löschen"><path d="M433.551,930.5519 C439.942,1001.1019 457.036,1147.8359 491,1184.2969 C504.73,1199.0369 523.988,1207.9039 543.384,1213.1929 " fill="none" id="S-to-Gatter löschen" style="stroke:#181818;stroke-width:1.0;"/><polygon fill="#181818" points="548.315,1214.4619,540.5952,1208.3459,543.4726,1213.2163,538.6023,1216.0937,548.315,1214.4619" style="stroke:#181818;stroke-width:1.0;"/></g><!--MD5=[bdc8adfa136ac4cfa5bdd9c08e7fd55d]
link S to Kabel halten--><g id="link_S_Kabel halten"><path d="M432.843,930.3589 C438.514,1012.2429 455.231,1201.9499 491,1254.2969 C510.722,1283.1589 545.343,1302.7739 573.536,1314.8369 " fill="none" id="S-to-Kabel halten" style="stroke:#181818;stroke-width:1.0;"/><polygon fill="#181818" points="578.36,1316.8549,571.6021,1309.6903,573.7477,1314.9245,568.5135,1317.0701,578.36,1316.8549" style="stroke:#181818;stroke-width:1.0;"/></g><!--MD5=[6fa5a1a6b97aea52afe763892f23f5ab]
link S to Kabel-Handle platzieren--><g id="link_S_Kabel-Handle platzieren"><path d="M430.293,930.3279 C430.518,1030.5219 436.336,1298.5459 491,1364.2969 C500.616,1375.8629 513.513,1384.2019 527.419,1390.2059 " fill="none" id="S-to-Kabel-Handle platzieren" style="stroke:#181818;stroke-width:1.0;"/><polygon fill="#181818" points="532.17,1392.1539,525.3609,1385.0379,527.544,1390.2566,522.3253,1392.4396,532.17,1392.1539" style="stroke:#181818;stroke-width:1.0;"/></g><!--MD5=[a5e7e0dd4123f4f483966bd2bee00fc0]
link S to Kabel entfernen--><g id="link_S_Kabel entfernen"><path d="M432.231,930.6079 C437.938,1049.5629 457.723,1406.9649 491,1446.2969 C503.086,1460.5819 520.366,1469.4229 538.318,1474.8379 " fill="none" id="S-to-Kabel entfernen" style="stroke:#181818;stroke-width:1.0;"/><polygon fill="#181818" points="543.396,1476.2769,535.8268,1469.9755,538.5853,1474.9142,533.6466,1477.6727,543.396,1476.2769" style="stroke:#181818;stroke-width:1.0;"/></g><!--MD5=[e783f63270a2d9cb6d8d1beb10197585]
link S to Strom einschalten--><g id="link_S_Strom einschalten"><path d="M429.863,930.5049 C428.52,1050.6409 429.623,1418.5869 491,1517.2969 C508.483,1545.4129 540.05,1565.0879 567.399,1577.7709 " fill="none" id="S-to-Strom einschalten" style="stroke:#181818;stroke-width:1.0;"/><polygon fill="#181818" points="572.099,1579.9019,565.5539,1572.5424,567.5452,1577.8372,562.2504,1579.8284,572.099,1579.9019" style="stroke:#181818;stroke-width:1.0;"/></g><!--MD5=[41f0f88f912d9a0e4983c764b3afa10a]
link S to Strom ausschalten--><g id="link_S_Strom ausschalten"><path d="M431.115,930.3369 C433.773,1074.0429 446.244,1578.5039 491,1633.2969 C502.195,1647.0028 518.144,1655.8155 534.989,1661.4374 " fill="none" id="S-to-Strom ausschalten" style="stroke:#181818;stroke-width:1.0;"/><polygon fill="#181818" points="539.76,1662.9398,532.3783,1656.4197,534.9912,1661.437,529.9739,1664.0499,539.76,1662.9398" style="stroke:#181818;stroke-width:1.0;"/></g><!--MD5=[c1a57ba3f14616b7e07c25b011494ef0]
reverse link Kreide halten to S--><g id="link_Kreide halten_S"><path d="M254.461,89.1169 C293.641,89.8169 340.003,98.2369 368,129.2969 C416.906,183.5469 426.433,707.4669 428.147,854.2449 " fill="none" id="Kreide halten-backto-S" style="stroke:#181818;stroke-width:1.0;"/><polygon fill="#181818" points="249.229,89.0769,258.1921,93.159,254.2288,89.1226,258.2652,85.1593,249.229,89.0769" style="stroke:#181818;stroke-width:1.0;"/></g><!--MD5=[ac0e4294d1957015aa242e3d5dfa1889]
reverse link Striche mit kreide platzieren to S--><g id="link_Striche mit kreide platzieren_S"><path d="M306.457,180.4469 C329.895,187.4069 352.059,198.8569 368,217.2969 C409.786,265.6469 424.221,718.0569 427.633,853.9049 " fill="none" id="Striche mit kreide platzieren-backto-S" style="stroke:#181818;stroke-width:1.0;"/><polygon fill="#181818" points="301.438,179.0269,309.0134,185.3208,306.2501,180.3848,311.1861,177.6215,301.438,179.0269" style="stroke:#181818;stroke-width:1.0;"/></g><!--MD5=[41d551064ed582a52f50c29e6c1be676]
reverse link Schwamm halten to S--><g id="link_Schwamm halten_S"><path d="M268.063,249.9269 C303.859,252.7469 343.032,262.8869 368,290.2969 C406.023,332.0369 422.852,728.2789 427.267,854.1309 " fill="none" id="Schwamm halten-backto-S" style="stroke:#181818;stroke-width:1.0;"/><polygon fill="#181818" points="262.808,249.5669,271.5097,254.1799,267.796,249.9127,272.0631,246.199,262.808,249.5669" style="stroke:#181818;stroke-width:1.0;"/></g><!--MD5=[c494a1e9b5d2331d4c3bb7987c795cd5]
reverse link Striche mit Schwamm entfernen to S--><g id="link_Striche mit Schwamm entfernen_S"><path d="M276.549,361.1169 C310.473,374.4769 345.928,394.8169 368,425.2969 C417.449,493.5769 426.49,754.9639 428.136,853.9779 " fill="none" id="Striche mit Schwamm entfernen-backto-S" style="stroke:#181818;stroke-width:1.0;"/><polygon fill="#181818" points="271.556,359.1969,278.5215,366.1598,276.2231,360.9909,281.3919,358.6925,271.556,359.1969" style="stroke:#181818;stroke-width:1.0;"/></g><!--MD5=[8a32b23c6afeb44dd2921fc7ade82cba]
reverse link Board leeren to S--><g id="link_Board leeren_S"><path d="M254.091,452.8869 C292.907,453.8869 339.026,462.3669 368,492.2969 C417.518,543.4569 426.549,764.4809 428.164,854.2169 " fill="none" id="Board leeren-backto-S" style="stroke:#181818;stroke-width:1.0;"/><polygon fill="#181818" points="248.909,452.7869,257.8367,456.9457,253.9082,452.8754,257.9784,448.9469,248.909,452.7869" style="stroke:#181818;stroke-width:1.0;"/></g><!--MD5=[999bc0802c69c179542572de62669db5]
reverse link Pseudo-Gatter erstellen to S--><g id="link_Pseudo-Gatter erstellen_S"><path d="M292.255,536.4669 C320.235,542.4269 348.058,553.7169 368,574.2969 C406.233,613.7469 421.354,778.3969 426.366,854.0189 " fill="none" id="Pseudo-Gatter erstellen-backto-S" style="stroke:#181818;stroke-width:1.0;"/><polygon fill="#181818" points="287.03,535.4169,295.0628,541.1155,291.9315,536.4043,296.6427,533.2731,287.03,535.4169" style="stroke:#181818;stroke-width:1.0;"/></g><!--MD5=[75d5d62bcf386d0e8be8f3f34e85afb8]
reverse link Label für Pseudo-Gatter erstellen to S--><g id="link_Label für Pseudo-Gatter erstellen_S"><path d="M311.569,635.1269 C332.491,642.3369 352.397,652.9069 368,668.2969 C418.187,717.7969 428.031,804.2989 429.236,854.0799 " fill="none" id="Label für Pseudo-Gatter erstellen-backto-S" style="stroke:#181818;stroke-width:1.0;"/><polygon fill="#181818" points="306.806,633.5469,314.0876,640.1784,311.5514,635.122,316.6079,632.5858,306.806,633.5469" style="stroke:#181818;stroke-width:1.0;"/></g><!--MD5=[5193943a5c17ec70e9935dbd944549d4]
reverse link Label für Psedo-Gatter bestimmen to S--><g id="link_Label für Psedo-Gatter bestimmen_S"><path d="M262.233,744.2209 C297.043,759.1269 337.061,779.9009 368,806.2969 C383.554,819.5669 397.078,837.6869 407.372,853.8729 " fill="none" id="Label für Psedo-Gatter bestimmen-backto-S" style="stroke:#181818;stroke-width:1.0;"/><polygon fill="#181818" points="257.577,742.2479,264.3026,749.4428,262.1806,744.199,267.4244,742.077,257.577,742.2479" style="stroke:#181818;stroke-width:1.0;"/></g><!--MD5=[65cd98091f371d72c29d4d20dd2d4685]
reverse link Aufgabe ablesen to S--><g id="link_Aufgabe ablesen_S"><path d="M251.831,853.7319 C286.645,860.3259 329.684,868.8039 368,877.2969 C379.833,879.9199 392.892,883.1189 403.84,885.8879 " fill="none" id="Aufgabe ablesen-backto-S" style="stroke:#181818;stroke-width:1.0;"/><polygon fill="#181818" points="246.756,852.7729,254.8565,858.3748,251.669,853.7015,256.3423,850.5139,246.756,852.7729" style="stroke:#181818;stroke-width:1.0;"/></g><!--MD5=[1db2f6b48f959463a1a6670e27237c17]
reverse link AUfgabe überprüfen to S--><g id="link_AUfgabe überprüfen_S"><path d="M272.877,907.5729 C319.578,902.9889 373.317,897.7139 403.86,894.7159 " fill="none" id="AUfgabe überprüfen-backto-S" style="stroke:#181818;stroke-width:1.0;"/><polygon fill="#181818" points="267.801,908.0709,277.1488,911.1722,272.7771,907.5823,276.367,903.2105,267.801,908.0709" style="stroke:#181818;stroke-width:1.0;"/></g><!--MD5=[e61fd9b9f86e69c86abcf8cbc88686df]
reverse link Navigieren to S--><g id="link_Navigieren_S"><path d="M252.035,985.0529 C288.232,981.4679 332.473,973.1349 368,954.2969 C381.553,947.1109 393.91,935.8079 403.873,924.8109 " fill="none" id="Navigieren-backto-S" style="stroke:#181818;stroke-width:1.0;"/><polygon fill="#181818" points="246.755,985.5479,256.0884,988.6923,251.7333,985.0822,255.3433,980.727,246.755,985.5479" style="stroke:#181818;stroke-width:1.0;"/></g><!--MD5=[5ee65a6081edd9005d3a68c53216822d]
reverse link Hinweise / Lösungen beziehen to S--><g id="link_Hinweise / Lösungen beziehen_S"><path d="M301.484,1051.8819 C325.352,1045.0859 348.949,1034.7989 368,1019.2969 C395.563,996.8689 411.338,958.9099 419.821,930.3199 " fill="none" id="Hinweise / Lösungen beziehen-backto-S" style="stroke:#181818;stroke-width:1.0;"/><polygon fill="#181818" points="296.388,1053.2789,306.1256,1054.755,301.2098,1051.9559,304.0089,1047.0401,296.388,1053.2789" style="stroke:#181818;stroke-width:1.0;"/></g><!--MD5=[cd2f467fd84b266f98a364e8707f331e]
reverse link Gatter auswählen to S--><g id="link_Gatter auswählen_S"><path d="M252.469,1171.7279 C291.438,1160.6339 338.262,1141.0619 368,1107.2969 C412.081,1057.2469 424.239,977.3969 427.472,930.3839 " fill="none" id="Gatter auswählen-backto-S" style="stroke:#181818;stroke-width:1.0;"/><polygon fill="#181818" points="247.27,1173.1709,257.0119,1174.6187,252.0879,1171.8339,254.8727,1166.91,247.27,1173.1709" style="stroke:#181818;stroke-width:1.0;"/></g><!--MD5=[f4772d119f705c352474f0a574d4e965]
reverse link Gatter beziehen to S--><g id="link_Gatter beziehen_S"><path d="M267.086,1261.2099 C302.686,1257.9949 341.976,1247.7559 368,1221.2969 C408.062,1180.5649 422.28,1008.1099 426.716,930.4639 " fill="none" id="Gatter beziehen-backto-S" style="stroke:#181818;stroke-width:1.0;"/><polygon fill="#181818" points="261.863,1261.6339,271.1579,1264.8905,266.8465,1261.2282,270.5088,1256.9169,261.863,1261.6339" style="stroke:#181818;stroke-width:1.0;"/></g><!--MD5=[72d5628b7f80c9ad3a8d2c140159b71e]
reverse link High-Score ablesen to S--><g id="link_High-Score ablesen_S"><path d="M258.471,1358.3999 C297.028,1347.2999 341.466,1327.6629 368,1293.2969 C411.512,1236.9419 424.033,1019.3429 427.373,930.4529 " fill="none" id="High-Score ablesen-backto-S" style="stroke:#181818;stroke-width:1.0;"/><polygon fill="#181818" points="253.315,1359.8439,263.0604,1361.268,258.1297,1358.4952,260.9025,1353.5645,253.315,1359.8439" style="stroke:#181818;stroke-width:1.0;"/></g><!--MD5=[a011b568ea2167396729646bc2d86586]
reverse link Aktueller Score ablesen to S--><g id="link_Aktueller Score ablesen_S"><path d="M291.064,1448.4859 C319.794,1442.6769 348.312,1431.1199 368,1409.2969 C400.008,1373.8189 420.423,1044.0789 426.553,930.5149 " fill="none" id="Aktueller Score ablesen-backto-S" style="stroke:#181818;stroke-width:1.0;"/><polygon fill="#181818" points="286.077,1449.4369,295.6672,1451.6791,290.9884,1448.4997,294.1678,1443.8209,286.077,1449.4369" style="stroke:#181818;stroke-width:1.0;"/></g><!--MD5=[dcf36865a6066ceb6f41c4618ba5f3da]
reverse link Abziehen der Punkte pro Hinweis/Lösung to S--><g id="link_Abziehen der Punkte pro Hinweis/Lösung_S"><path d="M324.228,1522.6699 C340.942,1514.8989 356.219,1504.4099 368,1490.2969 C403.901,1447.2899 422.143,1055.6259 427.09,930.5229 " fill="none" id="Abziehen der Punkte pro Hinweis/Lösung-backto-S" style="stroke:#181818;stroke-width:1.0;"/><polygon fill="#181818" points="319.478,1524.7909,329.3268,1524.774,324.0436,1522.7524,326.0652,1517.4691,319.478,1524.7909" style="stroke:#181818;stroke-width:1.0;"/></g><!--MD5=[928efc139d200567ba4d61c80cae0481]
reverse link Spiel zurücksetzen to S--><g id="link_Spiel zurücksetzen_S"><path d="M259.344,1660.0522 C298.164,1649.149 342.575,1629.4918 368,1594.2969 C407.04,1540.2549 423.462,1069.1919 427.477,930.5359 " fill="none" id="Spiel zurücksetzen-backto-S" style="stroke:#181818;stroke-width:1.0;"/><polygon fill="#181818" points="254.151,1661.4684,263.8864,1662.9592,258.9748,1660.1527,261.7813,1655.2411,254.151,1661.4684" style="stroke:#181818;stroke-width:1.0;"/></g><!--MD5=[fa66648bd431be21a1fdf686f5269dd5]
@startuml
left to right direction

title Serious Game - Use Case Diagram 


:Spieler: as S

package Hauptmenü{
S - -> (Spiel starten)
S - -> (Tutorial starten)
S - -> (Sanbox starten)
}

package In-Game-Menü{
S - -> (Menü aufrufen)
S - -> (Menü verstecken)
S - -> (Spielszene neu laden)
S - -> (SPielszene verlassen)
}

package Bewegung{
S - -> (Headset bewegen)
S - -> (Controller bewegen)
S - -> (Im Raum bewegen)
}

package Gatter{
S - -> (Gatter halten)
S - -> (Gatter platzieren)
S - -> (Gatter entfernen)
S - -> (Gatter löschen)
}

package Kabel{
S - -> (Kabel halten)
S - -> (Kabel-Handle platzieren)
S - -> (Kabel entfernen)
}

package Strom{
S - -> (Strom einschalten)
S - -> (Strom ausschalten)
}

package Notizen{
(Kreide halten) <- - S
(Striche mit kreide platzieren) <- - S
(Schwamm halten) <- - S
(Striche mit Schwamm entfernen) <- - S
}

package Board{
(Board leeren) <- - S
(Pseudo-Gatter erstellen) <- - S
(Label für Pseudo-Gatter erstellen) <- - S
(Label für Psedo-Gatter bestimmen) <- - S
}

package Wandtafel{
(Aufgabe ablesen) <- - S
(AUfgabe überprüfen) <- - S
(Navigieren) <- - S
(Hinweise / Lösungen beziehen) <- - S
}

package Automat{
(Gatter auswählen) <- - S
(Gatter beziehen) <- - S         
}

package High-Score{
(High-Score ablesen) <- - S
(Aktueller Score ablesen) <- - S
(Abziehen der Punkte pro Hinweis/Lösung) <- - S
}

package Sonstige{
(Spiel zurücksetzen) <- - S
}
@enduml

PlantUML version 1.2022.6beta4(Unknown compile time)
(GPL source distribution)
Java Runtime: Java(TM) SE Runtime Environment
JVM: Java HotSpot(TM) 64-Bit Server VM
Default Encoding: UTF-8
Language: en
Country: US
--></g></svg>